<?xml version="1.0" standalone="no"?>
<!DOCTYPE svg PUBLIC "-//W3C//DTD SVG 20010904//EN"
 "http://www.w3.org/TR/2001/REC-SVG-20010904/DTD/svg10.dtd">
<svg version="1.0" xmlns="http://www.w3.org/2000/svg"
 width="853.000000pt" height="480.000000pt" viewBox="0 0 853.000000 480.000000"
 preserveAspectRatio="xMidYMid meet">

<g transform="translate(0.000000,480.000000) scale(0.100000,-0.100000)"
fill="#000000" stroke="none">
<path d="M0 2400 l0 -2400 1844 0 1844 0 6 23 c3 12 5 42 4 67 l-1 45 -4 -39
-4 -39 -15 28 c-10 20 -11 32 -4 39 5 5 10 24 10 41 0 23 3 26 10 15 5 -8 10
-11 10 -6 0 5 9 -3 20 -17 16 -19 19 -33 13 -54 -8 -33 -6 -49 9 -81 l11 -22
2132 0 2132 0 11 25 c16 35 62 35 62 0 l0 -25 220 0 220 0 0 194 c0 146 -3
196 -12 200 -10 5 -10 7 0 12 9 4 12 256 12 1209 l0 1203 -22 6 -23 6 22 19
c22 18 23 27 23 138 0 79 -4 123 -12 131 -9 9 -9 12 0 12 9 0 12 168 12 725 0
684 -1 725 -17 723 -10 -1 -26 0 -37 0 -28 3 0 32 30 32 24 0 24 2 24 95 l0
95 -2862 -2 c-1575 0 -2848 -3 -2830 -5 17 -2 32 -8 32 -14 0 -14 -63 -10 -84
6 -17 13 -202 15 -1403 15 l-1383 0 0 -2400z m2725 2319 c87 -15 93 -17 49
-18 -33 -1 -56 -7 -64 -16 -10 -12 -10 -15 1 -15 8 0 25 -9 39 -20 22 -16 13
-15 -63 8 -48 15 -87 31 -87 35 0 5 6 7 14 4 25 -10 27 6 4 31 -13 14 -16 21
-8 16 8 -4 60 -16 115 -25z m-2239 7 c10 -8 16 -17 12 -21 -9 -9 -78 14 -78
26 0 14 44 11 66 -5z m2580 -29 c-11 -7 -35 -25 -54 -42 l-36 -30 19 28 c10
15 30 34 44 42 31 17 54 19 27 2z m-366 -67 c0 -5 -19 -14 -42 -20 -24 -6 -56
-15 -73 -21 -37 -12 -23 2 30 30 42 22 85 28 85 11z m211 -7 c-5 -10 -17 -27
-26 -38 -16 -19 -16 -19 -4 5 13 27 29 50 36 50 2 0 -1 -8 -6 -17z m194 -24
c-34 -13 -60 -17 -80 -12 -28 6 -27 7 25 19 88 19 113 16 55 -7z m-338 -9
c-42 -8 -60 -26 -81 -85 -8 -22 -15 -32 -15 -22 -1 24 23 79 43 100 11 10 32
17 54 16 l37 -1 -38 -8z m-104 -34 c8 -20 -34 -80 -58 -85 -20 -3 -20 -3 -1
17 l18 21 -38 -20 c-21 -10 -56 -19 -79 -19 -29 0 -36 -3 -25 -10 8 -5 10 -10
4 -10 -6 0 -17 7 -24 15 -11 13 -8 15 13 15 38 0 68 14 116 54 46 39 66 44 74
22z m180 -35 c-3 -14 -10 -36 -15 -49 l-8 -24 29 24 c17 13 30 29 30 36 1 16
13 15 36 -2 24 -17 15 -79 -16 -112 -33 -35 -13 -29 35 11 42 34 63 45 52 26
-4 -5 4 -7 16 -3 16 4 19 2 13 -8 -5 -9 -4 -11 4 -6 7 5 32 -12 63 -43 47 -47
52 -56 56 -107 4 -43 8 -54 19 -50 8 3 19 6 24 6 5 0 9 7 9 15 0 8 5 15 10 15
6 0 10 10 10 22 0 18 4 16 20 -15 19 -35 28 -65 12 -41 -4 7 -7 -25 -7 -70 0
-44 4 -86 8 -92 4 -7 0 -18 -9 -25 -12 -10 -15 -28 -12 -74 2 -54 0 -65 -23
-92 -16 -19 -38 -33 -55 -35 -18 -2 -33 -11 -39 -25 -5 -12 -51 -51 -101 -85
-51 -34 -90 -66 -87 -71 2 -4 40 18 85 48 44 30 84 52 89 49 5 -3 8 0 7 7 -2
6 2 13 9 16 11 4 73 -76 73 -95 0 -4 -13 -23 -28 -40 l-28 -31 -33 34 c-30 32
-71 47 -71 26 0 -14 -119 -61 -177 -70 -65 -10 -78 2 -86 76 -3 29 -12 63 -18
75 -19 35 -20 68 -3 61 8 -3 25 2 39 11 14 9 25 14 25 11 0 -2 18 5 40 16 44
23 47 30 25 52 -13 14 -21 12 -72 -14 -61 -31 -73 -34 -73 -19 0 11 54 37 90
43 18 3 15 5 -12 6 -26 1 -45 -6 -66 -24 -16 -13 -33 -21 -38 -17 -4 4 -2 -1
5 -10 15 -20 9 -23 -20 -8 -14 8 -19 21 -19 49 0 37 -19 68 -33 54 -4 -3 -7
-1 -7 6 0 9 8 11 21 8 27 -7 49 1 49 18 0 10 -7 11 -30 5 -16 -5 -30 -6 -30
-2 0 3 -6 -3 -14 -13 -13 -18 -15 -18 -40 -2 -14 10 -26 22 -26 28 0 6 27 42
60 79 43 49 58 73 54 86 -4 14 -3 15 3 6 8 -10 13 -9 24 4 9 12 10 15 2 10 -7
-4 -13 -3 -13 2 0 13 71 13 86 1 8 -6 14 -4 19 8 6 15 9 14 21 -12 9 -21 14
-25 15 -12 1 9 3 22 4 27 1 6 3 17 4 25 1 9 11 15 26 15 32 0 31 -7 -2 -43
-21 -22 -23 -27 -8 -19 11 5 32 24 48 41 15 17 35 31 45 31 15 1 15 2 -3 16
-20 15 -66 15 -110 -1 -13 -5 -6 6 20 34 36 38 44 42 80 39 22 -1 39 2 38 7
-5 17 -106 18 -128 0 -37 -28 -96 -65 -104 -65 -5 0 -21 -10 -36 -22 l-27 -21
23 -12 c22 -13 22 -13 -9 -20 -46 -10 -55 0 -35 38 9 18 18 37 19 42 11 54 48
184 59 206 16 29 89 71 111 62 9 -3 12 -14 7 -32z m127 -28 c-11 -17 -11 -17
-6 0 3 10 7 28 7 40 2 22 2 22 6 0 2 -12 -1 -30 -7 -40z m5372 -13 c6 0 6 -6
-2 -15 -14 -17 -29 -19 -50 -5 -13 9 -13 11 0 20 8 5 21 8 28 5 8 -3 18 -5 24
-5z m-5002 -137 c-26 -5 -60 -35 -60 -52 0 -5 -4 -13 -10 -16 -19 -11 -10 31
10 53 14 15 31 22 53 21 27 -2 28 -2 7 -6z m40 -47 c0 -5 -7 -3 -15 4 -8 7
-12 17 -9 22 7 10 24 -9 24 -26z m-24 -52 l-11 -24 -4 23 c-1 12 -8 25 -15 29
-8 6 -7 8 3 8 8 0 11 6 7 18 -4 11 0 8 12 -7 15 -19 17 -28 8 -47z m4082 54
c-5 -15 -42 -22 -64 -14 -25 10 -5 26 32 26 24 0 34 -4 32 -12z m77 -26 c0
-18 -20 -15 -23 4 -3 10 1 15 10 12 7 -3 13 -10 13 -16z m-4239 -100 c-12 -11
-15 5 -8 44 l7 39 3 -39 c2 -21 1 -41 -2 -44z m-516 48 c0 -5 -5 -10 -11 -10
-5 0 -7 5 -4 10 3 6 8 10 11 10 2 0 4 -4 4 -10z m631 -5 c7 19 8 19 8 -1 1
-11 -2 -24 -6 -27 -9 -10 -33 13 -33 32 1 13 3 12 12 -4 11 -19 11 -19 19 0z
m-58 -41 c-5 -13 -2 -15 17 -9 15 5 20 3 16 -3 -3 -6 -1 -14 5 -18 6 -3 15 0
20 7 5 9 9 10 9 2 0 -6 9 -9 20 -6 18 5 22 0 19 -24 0 -4 9 -11 21 -15 12 -4
19 -12 15 -18 -4 -6 1 -7 12 -4 17 5 17 5 1 -9 -23 -18 -23 -27 1 -27 12 0 24
-12 32 -29 8 -17 16 -25 20 -20 3 6 14 -18 24 -53 9 -35 22 -72 28 -83 12 -22
16 -185 5 -212 -5 -15 -7 -13 -7 7 -1 48 -13 95 -29 107 -8 7 -12 16 -8 20 4
4 11 1 16 -7 18 -29 23 1 6 37 -14 29 -20 34 -27 22 -7 -11 -9 -9 -9 9 0 16
-8 26 -28 33 -24 8 -31 20 -47 75 -15 54 -26 71 -64 104 -25 22 -56 50 -68 62
-26 24 -31 68 -8 68 9 0 12 -6 8 -16z m-18 -64 c8 -12 -12 -40 -28 -40 -6 0
-2 7 9 15 13 10 14 13 3 10 -10 -4 -16 0 -16 10 0 17 22 20 32 5z m93 -77 c12
-19 22 -40 22 -47 0 -7 7 -21 15 -32 22 -29 20 -47 -4 -32 -11 7 -18 15 -15
19 2 4 0 10 -6 14 -6 4 -7 11 -4 17 4 7 2 8 -5 4 -6 -4 -9 -12 -6 -17 10 -15
-12 -10 -25 6 -7 8 -21 15 -31 15 -21 0 -25 32 -10 74 13 33 39 25 69 -21z
m-105 -20 c-3 -21 -12 -47 -19 -58 -8 -11 -14 -29 -13 -40 0 -13 4 -9 10 13
10 32 16 36 54 32 24 -2 47 -29 38 -43 -3 -6 -1 -7 6 -3 6 4 8 12 5 18 -10 16
27 -7 65 -42 18 -16 37 -30 42 -30 4 0 8 -19 8 -42 0 -67 1 -76 17 -106 7 -15
14 -33 14 -39 0 -7 9 -39 19 -70 11 -32 22 -87 26 -122 4 -38 14 -76 25 -91
18 -26 18 -26 -2 -39 -17 -11 -18 -15 -7 -22 9 -5 3 -7 -18 -5 -18 3 -32 1
-32 -2 3 -20 -3 -25 -12 -12 -9 12 -10 12 -5 -4 4 -10 2 -24 -4 -31 -6 -7 -10
-17 -9 -21 1 -5 -1 -21 -5 -37 -8 -28 4 -55 39 -91 15 -14 15 -21 5 -47 -10
-22 -15 -27 -21 -17 -7 10 -9 10 -9 -2 -1 -32 -30 24 -30 58 0 19 -9 49 -19
66 -11 17 -22 52 -26 78 -4 26 -11 46 -15 43 -5 -3 -5 -19 0 -35 l9 -30 -31
22 c-17 13 -48 40 -69 62 -31 31 -43 37 -64 32 -14 -4 -25 -2 -25 4 0 5 11 12
24 16 l24 6 -28 60 c-32 68 -66 108 -89 108 -13 -1 -12 -3 3 -11 15 -9 16 -13
5 -20 -10 -6 -8 -9 9 -9 12 0 22 -4 22 -10 0 -5 -4 -10 -10 -10 -5 0 -10 -7
-10 -16 0 -14 3 -14 15 -4 9 7 17 11 19 9 19 -25 47 -81 43 -86 -3 -3 -25 11
-48 31 -24 20 -46 36 -50 36 -3 0 -9 14 -13 31 -3 17 -10 28 -15 25 -11 -7
-21 17 -21 53 0 28 50 87 63 75 3 -4 5 3 2 15 -4 22 18 51 38 51 14 0 46 -20
33 -20 -5 0 -1 -9 9 -20 18 -20 18 -21 -1 -14 -19 7 -19 7 1 -15 l19 -22 -28
10 c-34 14 -46 14 -46 1 0 -5 7 -10 14 -10 8 0 27 -12 43 -26 26 -24 28 -24
40 -8 10 14 13 15 14 3 1 -8 1 -17 0 -21 -1 -8 26 -4 35 5 3 3 -2 14 -11 24
-11 11 -14 18 -6 21 19 6 12 21 -8 17 -15 -3 -18 1 -14 12 5 12 3 14 -8 8 -8
-5 -6 0 4 12 18 20 18 21 0 19 -12 -1 -17 5 -16 19 l2 20 -16 -20 c-9 -11 -13
-13 -11 -5 3 8 8 26 12 40 7 24 7 24 -9 5 -22 -27 -75 -30 -75 -3 0 41 19 59
59 57 20 -2 43 1 50 5 7 5 20 1 32 -10 18 -16 18 -18 2 -37 -10 -11 -12 -17
-5 -13 8 5 12 1 12 -11 0 -15 2 -16 10 -3 6 9 10 10 10 3 0 -18 -20 -27 -33
-14 -6 6 -15 11 -21 11 -12 0 23 -39 47 -52 17 -8 18 -7 12 14 -11 36 1 19 35
-50 17 -34 35 -60 40 -57 6 4 5 17 -4 33 -7 15 -11 33 -8 41 3 8 0 11 -7 7
-10 -7 -15 20 -15 86 0 9 -3 15 -7 12 -12 -7 -42 31 -46 56 -3 20 -43 63 -51
55 -2 -2 3 -13 10 -24 11 -18 11 -23 -2 -31 -30 -19 -40 -11 -42 33 -1 36 -2
37 -5 10 -4 -31 -6 -32 -42 -30 l-38 2 20 28 c16 21 21 43 21 100 1 68 2 72
24 73 12 1 25 4 29 8 11 11 12 7 6 -31z m4411 2 c6 -15 -13 -38 -45 -56 -37
-19 -67 29 -37 59 17 17 75 15 82 -3z m166 -15 c0 -5 -5 -10 -11 -10 -5 0 -7
5 -4 10 3 6 8 10 11 10 2 0 4 -4 4 -10z m-734 -59 c5 -6 25 -5 51 2 80 21 126
-31 62 -70 -26 -16 -28 -15 -65 15 -43 35 -59 39 -68 17 -7 -20 -45 -19 -53 1
-11 30 49 58 73 35z m-378 -32 c3 -22 -2 -29 -29 -38 -37 -13 -106 -15 -113
-3 -9 15 19 56 44 63 14 4 41 7 60 6 30 -2 35 -6 38 -28z m-1999 -24 c0 -5 -4
-3 -9 5 -5 8 -9 22 -9 30 0 16 17 -16 18 -35z m2903 14 c10 -5 15 -16 12 -23
-11 -30 -234 -21 -234 9 0 28 175 38 222 14z m-4022 -56 c0 -21 -18 -6 -36 30
l-17 32 27 -24 c14 -14 26 -31 26 -38z m230 22 c-13 -14 -26 -23 -28 -20 -3 3
5 16 18 30 13 14 26 23 28 20 3 -3 -5 -16 -18 -30z m2751 -48 c11 -41 -15 -47
-51 -12 -34 33 -30 47 13 43 24 -2 32 -9 38 -31z m-3467 -69 c2 -10 3 -18 1
-18 -6 0 -45 67 -45 76 1 13 38 -38 44 -58z m4278 38 c11 -16 10 -23 -8 -40
-22 -22 -61 -20 -74 4 -23 42 55 77 82 36z m-3753 -50 c-3 -3 -11 5 -18 17
-13 21 -12 21 5 5 10 -10 16 -20 13 -22z m-109 -51 c1 -5 1 -17 0 -25 -3 -20
-18 38 -18 70 0 26 0 25 18 -45z m650 45 c0 -23 -8 -25 -32 -6 -25 18 -22 26
7 26 18 0 25 -5 25 -20z m2303 -5 c4 -8 2 -17 -3 -20 -6 -4 -10 3 -10 14 0 25
6 27 13 6z m1047 -5 c0 -13 -7 -20 -20 -20 -13 0 -20 -7 -20 -19 0 -28 61 -54
103 -44 47 12 117 5 117 -12 0 -7 -16 -27 -35 -44 -31 -27 -38 -29 -63 -19
-15 6 -66 12 -114 14 l-87 4 2 -28 c2 -24 -2 -27 -31 -30 -38 -4 -59 10 -64
40 -4 31 -25 33 -32 5 -4 -16 -16 -27 -33 -32 -16 -3 -36 -13 -45 -22 -32 -28
-51 7 -25 47 25 42 -44 49 -121 13 -38 -18 -107 -19 -128 -2 -25 20 -16 49 19
64 17 7 44 23 59 34 20 16 34 20 55 14 15 -4 35 -6 43 -4 8 1 31 -3 52 -10 36
-11 39 -11 58 14 19 24 26 26 75 22 38 -3 61 -11 76 -26 l22 -22 19 26 c11 15
25 27 33 27 7 0 18 7 25 15 19 23 60 19 60 -5z m-1445 0 c23 0 72 -48 80 -77
4 -16 11 -109 16 -208 4 -99 10 -193 11 -210 3 -25 -1 -31 -22 -33 -35 -5
-119 -71 -136 -107 l-14 -30 5 35 c31 192 42 436 26 573 -6 56 -5 67 7 62 7
-3 20 -5 27 -5z m2312 -3 c3 -4 3 -12 0 -20 -3 -9 -40 -17 -119 -25 -62 -6
-120 -13 -129 -17 -25 -9 -51 22 -39 45 8 14 24 20 68 23 75 5 211 1 219 -6z
m-4857 -142 c0 -5 -5 -3 -10 5 -5 8 -10 20 -10 25 0 6 5 3 10 -5 5 -8 10 -19
10 -25z m3250 -5 c0 -5 -2 -10 -4 -10 -3 0 -8 5 -11 10 -3 6 -1 10 4 10 6 0
11 -4 11 -10z m-159 -42 c10 -18 8 -24 -7 -35 -11 -8 -35 -13 -54 -11 -45 4
-52 31 -13 52 39 21 60 20 74 -6z m247 4 c2 -7 -6 -12 -17 -12 -21 0 -27 11
-14 24 9 9 26 2 31 -12z m163 -15 c-13 -13 -26 -3 -16 12 3 6 11 8 17 5 6 -4
6 -10 -1 -17z m-561 -11 c0 -22 -11 -46 -21 -46 -5 0 -9 14 -9 30 0 20 5 30
15 30 8 0 15 -6 15 -14z m-3519 -55 c-32 -61 -67 -97 -158 -161 -83 -58 -86
-59 -112 -44 -14 9 8 -17 50 -58 83 -79 149 -154 149 -169 0 -18 -15 -8 -32
21 -15 27 -20 29 -44 20 -15 -6 -57 -31 -93 -55 -37 -25 -70 -45 -74 -45 -22
0 28 57 83 95 51 35 67 42 80 33 27 -20 -113 115 -183 175 -82 71 -85 90 -21
118 26 11 63 24 83 28 158 40 248 64 261 72 28 16 30 9 11 -30z m5172 -12 c9
-51 -4 -99 -28 -99 -14 0 -22 45 -16 105 5 61 32 58 44 -6z m-2318 -90 c-45
-182 -36 -169 -111 -169 -35 0 -64 3 -64 6 0 3 26 38 58 78 31 39 75 99 97
133 22 34 41 60 42 59 2 -2 -8 -50 -22 -107z m175 -309 c-5 -47 -14 -86 -19
-88 -5 -2 -7 -11 -4 -21 8 -30 -35 -169 -75 -245 -20 -39 -54 -88 -76 -108
-21 -21 -34 -38 -29 -38 5 0 27 19 50 43 50 51 102 155 133 262 26 90 36 107
50 85 8 -13 10 -13 10 1 0 9 10 19 24 21 19 4 22 1 18 -14 -2 -11 -10 -17 -18
-14 -36 14 -17 -65 48 -191 41 -80 41 -83 24 -102 -10 -11 -47 -30 -82 -41
-35 -12 -64 -25 -64 -30 0 -4 9 -6 21 -3 20 6 20 5 4 -33 -23 -55 -37 -66 -30
-24 5 31 4 32 -5 11 -6 -14 -9 -34 -8 -45 2 -14 -7 -27 -29 -41 -34 -21 -40
-43 -22 -77 7 -13 7 -18 1 -14 -12 7 -42 -31 -42 -54 1 -8 8 -2 16 13 23 42
28 25 10 -30 -9 -26 -19 -69 -22 -95 -14 -101 -72 -145 -182 -135 -59 6 -231
53 -242 67 -3 3 -23 15 -45 27 -22 11 -57 30 -77 41 -21 12 -38 18 -38 14 0
-5 29 -23 64 -42 36 -19 61 -37 57 -40 -18 -12 -31 -79 -31 -162 0 -78 -3 -95
-30 -148 -16 -32 -32 -77 -36 -99 -4 -23 -9 -41 -13 -41 -12 0 -116 73 -131
91 -8 11 -25 21 -37 23 -25 5 -157 82 -171 99 -32 42 -45 316 -22 480 12 89
16 100 42 119 l29 20 -3 -145 c-2 -81 1 -140 5 -134 6 8 7 7 4 -4 -6 -19 18
-224 33 -277 11 -41 70 -156 76 -149 2 2 -8 30 -22 62 -20 43 -28 79 -31 144
-5 77 10 287 20 297 2 2 24 -7 49 -21 42 -23 45 -28 55 -83 11 -60 40 -138 48
-131 2 3 -5 33 -15 68 -11 34 -20 74 -20 87 0 22 2 23 25 12 18 -8 29 -24 37
-55 16 -65 21 -44 7 29 -7 34 -15 55 -17 46 -4 -21 -4 -21 -37 -6 -21 9 -25
18 -25 53 0 86 51 323 86 398 12 25 14 26 9 7 -27 -113 -36 -183 -40 -300 l-4
-135 14 132 c7 73 19 159 25 190 30 150 134 406 167 410 10 2 12 0 6 -3 -7 -3
-13 -13 -12 -22 0 -11 2 -12 6 -4 2 6 20 12 40 12 37 0 69 -23 57 -41 -13 -22
-5 -91 16 -134 24 -50 23 -55 -40 -140 -42 -57 -82 -90 -155 -128 -27 -14 -44
-26 -37 -27 45 -1 196 122 257 211 23 33 30 37 47 28 10 -6 27 -8 36 -6 12 3
10 5 -6 6 -41 2 -34 28 36 133 38 57 89 138 113 180 41 73 46 77 79 78 34 1
34 2 10 13 -14 6 -27 12 -28 13 -2 1 12 38 31 81 20 43 46 112 59 154 l23 77
3 -167 c1 -91 -2 -204 -8 -251z m1293 386 c3 -8 -1 -22 -8 -33 -13 -17 -15
-17 -31 -1 -9 9 -14 24 -11 32 8 20 43 21 50 2z m-4181 -18 c-23 -23 -12 -38
30 -44 33 -6 38 -9 26 -18 -8 -6 -17 -22 -21 -36 -8 -37 -80 -210 -85 -205 -2
2 1 27 7 55 6 28 11 93 11 145 0 79 3 96 18 104 23 14 29 14 14 -1z m4058 -78
c0 -16 7 -20 35 -20 24 0 38 -5 42 -16 8 -21 -22 -44 -58 -44 -33 0 -58 -25
-41 -42 8 -8 18 -9 36 0 13 6 33 8 45 5 12 -3 28 0 36 7 20 17 54 3 66 -27 15
-39 11 -45 -20 -38 -20 4 -39 1 -58 -11 -15 -10 -29 -18 -30 -18 -1 -1 2 -20
6 -43 12 -61 -15 -68 -51 -14 -19 28 -13 51 13 51 10 0 19 4 19 10 0 14 -45
23 -75 16 -16 -4 -34 -1 -47 8 -12 9 -32 13 -44 10 -17 -4 -31 5 -64 45 -24
28 -48 51 -55 51 -22 0 -53 39 -48 59 10 38 31 46 56 23 14 -13 39 -22 67 -24
35 -2 47 -8 55 -25 8 -18 18 -23 47 -23 42 0 55 26 16 32 -27 3 -27 35 -1 55
21 16 53 -1 53 -27z m-1451 -22 c-48 -70 -91 -118 -106 -118 -9 0 13 31 52 75
73 81 90 94 54 43z m1841 22 c0 -5 -5 -10 -11 -10 -5 0 -7 5 -4 10 3 6 8 10
11 10 2 0 4 -4 4 -10z m502 -27 c31 -27 16 -118 -19 -111 -18 3 -46 90 -36
114 7 19 32 18 55 -3z m-4437 -13 c-10 -11 -13 -20 -7 -20 7 0 12 -4 12 -10 0
-19 -19 -10 -26 13 -4 12 -12 25 -18 29 -6 4 4 8 23 8 33 0 34 0 16 -20z m35
-10 c0 -5 -2 -10 -4 -10 -3 0 -8 5 -11 10 -3 6 -1 10 4 10 6 0 11 -4 11 -10z
m-80 -10 c0 -5 -5 -10 -11 -10 -5 0 -7 5 -4 10 3 6 8 10 11 10 2 0 4 -4 4 -10z
m3931 -34 c8 -17 8 -29 0 -45 -10 -18 -19 -21 -65 -17 -62 4 -76 10 -76 35 0
29 25 45 48 30 16 -10 24 -9 43 4 31 22 37 21 50 -7z m125 9 c8 -20 -13 -45
-37 -45 -13 0 -19 7 -19 23 0 13 3 27 7 30 12 13 44 7 49 -8z m-799 -12 c5
-15 -28 -26 -41 -13 -8 8 -7 14 4 20 17 11 32 8 37 -7z m-3227 -3 c0 -5 -2
-10 -4 -10 -3 0 -8 5 -11 10 -3 6 -1 10 4 10 6 0 11 -4 11 -10z m-95 -58 c-3
-3 0 -11 6 -19 9 -10 8 -13 -4 -13 -24 0 -45 41 -33 67 10 21 10 21 23 -4 7
-14 11 -28 8 -31z m55 48 c0 -5 -2 -10 -4 -10 -3 0 -8 5 -11 10 -3 6 -1 10 4
10 6 0 11 -4 11 -10z m1181 -28 c27 -24 30 -33 25 -59 l-7 -32 -40 40 c-35 35
-44 39 -72 34 -18 -4 -45 -16 -60 -27 -29 -20 -45 -19 -32 2 4 6 25 25 47 41
53 38 97 38 139 1z m-1187 -11 c-2 -3 -12 3 -22 13 -16 17 -16 18 5 5 12 -7
20 -15 17 -18z m56 14 c0 -2 -9 -3 -19 -2 -11 0 -18 5 -15 9 4 6 34 0 34 -7z
m-65 -35 c3 -5 2 -10 -4 -10 -5 0 -13 5 -16 10 -3 6 -2 10 4 10 5 0 13 -4 16
-10z m1150 -20 c3 -5 0 -7 -8 -4 -11 4 -14 -5 -14 -35 0 -22 4 -38 8 -35 5 3
9 -3 9 -13 0 -11 3 -14 8 -7 10 15 51 24 58 12 9 -15 -5 -58 -20 -58 -7 0 -21
-9 -30 -19 -25 -27 -6 -92 36 -125 l32 -25 -19 -22 c-17 -19 -17 -21 -3 -16
13 5 17 -3 23 -46 3 -29 9 -61 12 -72 4 -17 0 -15 -26 9 -17 17 -31 24 -31 17
0 -7 15 -27 33 -43 l32 -31 5 -251 c3 -138 4 -252 3 -254 -3 -7 -36 116 -54
203 -26 119 -42 326 -30 370 10 37 6 41 -72 99 -51 38 -99 104 -96 136 1 14
-2 33 -6 42 -4 10 -5 35 -2 55 3 21 7 49 9 63 3 24 15 40 30 40 4 0 1 -19 -7
-41 -19 -53 -19 -70 0 -63 8 4 13 9 11 13 -6 9 28 81 51 107 18 21 43 19 58
-6z m-992 -5 c-3 -9 -8 -14 -10 -11 -3 3 -2 9 2 15 9 16 15 13 8 -4z m2467 -5
c-6 -11 -17 -20 -25 -20 -9 0 -23 -9 -32 -20 -13 -14 -19 -16 -25 -7 -5 9 -11
7 -22 -8 -19 -26 -30 -15 -11 12 8 12 31 23 53 27 22 3 45 13 52 21 18 21 23
19 10 -5z m837 4 c10 -26 -11 -49 -43 -48 -57 1 -107 12 -122 27 -13 14 -11
17 19 25 58 17 139 14 146 -4z m-3837 -46 c12 -44 3 -65 -24 -55 -11 5 -16 20
-16 50 0 71 22 74 40 5z m2380 37 c-7 -8 -17 -15 -22 -15 -6 0 -5 7 2 15 7 8
17 15 22 15 6 0 5 -7 -2 -15z m-1873 -19 c-2 -6 -11 -10 -19 -8 -8 1 -23 -7
-33 -18 -17 -18 -17 -20 -2 -14 11 4 17 1 17 -8 0 -8 8 -22 18 -31 13 -12 17
-26 14 -47 -3 -23 0 -30 12 -30 18 0 21 -11 7 -25 -6 -6 -4 -20 5 -35 l15 -25
-6 29 c-6 26 -5 27 11 12 9 -10 14 -25 11 -37 -6 -23 19 -78 39 -86 8 -3 12
-9 9 -13 -3 -5 0 -12 7 -17 7 -4 20 -17 28 -27 12 -16 12 -18 1 -11 -11 6 -13
4 -8 -9 4 -10 7 -23 8 -29 0 -7 4 -3 9 8 7 17 9 15 9 -12 1 -17 6 -35 13 -39
6 -4 8 -3 5 4 -4 5 -3 20 1 33 7 18 9 13 9 -25 1 -33 7 -51 19 -60 9 -7 15
-17 12 -22 -4 -5 5 -27 18 -49 13 -22 32 -55 41 -73 10 -19 22 -31 30 -28 7 3
13 -1 13 -9 0 -8 8 -20 18 -27 9 -7 23 -24 29 -38 11 -24 12 -24 12 12 1 20 5
39 10 42 13 9 22 -37 16 -84 -3 -25 -2 -39 4 -36 5 4 15 -11 22 -31 10 -33 13
-35 20 -18 8 20 8 20 9 0 1 -14 7 -7 22 23 29 60 35 44 8 -21 l-23 -55 27 -28
c15 -16 30 -41 33 -56 3 -15 12 -33 19 -39 8 -6 14 -23 14 -38 1 -14 14 -59
30 -99 31 -80 30 -102 -5 -102 -28 0 -37 11 -61 75 -13 35 -43 76 -99 135 -98
104 -252 295 -295 367 -18 29 -54 108 -80 175 -90 229 -109 273 -154 357 -25
47 -46 97 -46 111 0 33 37 83 56 76 7 -3 15 0 17 7 2 7 8 9 12 5 4 -4 0 -20
-9 -35 l-17 -28 20 25 c12 14 25 30 31 37 11 14 52 5 47 -11z m1998 13 c60 -9
75 -15 71 -26 -4 -8 -9 -26 -12 -39 -4 -16 -13 -24 -28 -23 -20 0 -20 1 -1 9
18 7 16 10 -17 24 -21 9 -48 15 -60 15 -19 -1 -18 -3 7 -9 28 -7 28 -8 -12 -9
-34 -1 -41 2 -37 14 5 11 -1 15 -21 15 -27 0 -28 0 -10 20 21 23 21 23 120 9z
m-959 -8 c-4 -5 0 -11 6 -14 7 -2 10 -8 6 -12 -11 -12 -38 2 -38 20 0 8 7 15
16 15 8 0 13 -4 10 -9z m-1586 -96 c23 -100 23 -103 -3 -101 -14 0 -23 4 -21
7 2 3 -5 23 -16 43 -19 39 -19 47 8 106 16 33 17 34 19 10 2 -14 8 -43 13 -65z
m187 68 c7 -10 18 -27 25 -38 10 -19 10 -19 -7 -5 -17 14 -17 14 -7 -6 10 -20
8 -35 -18 -129 l-8 -30 -1 27 c-1 15 -10 44 -21 63 -20 35 -20 38 -3 86 10 27
20 49 22 49 2 0 10 -8 18 -17z m5063 -7 c0 -27 -31 -48 -59 -41 -31 8 -40 16
-25 22 6 2 20 10 30 18 25 19 54 19 54 1z m-2810 -8 c0 -4 -19 -8 -42 -7 -29
0 -37 3 -24 8 24 9 66 9 66 -1z m685 -8 c3 -6 -4 -10 -17 -10 -18 0 -20 2 -8
10 19 12 18 12 25 0z m605 2 c0 -16 -32 -52 -46 -52 -20 0 -29 27 -14 45 13
15 60 21 60 7z m-3180 -12 c0 -5 -5 -10 -11 -10 -5 0 -7 5 -4 10 3 6 8 10 11
10 2 0 4 -4 4 -10z m1988 -26 c4 2 16 -3 27 -11 13 -10 16 -17 8 -20 -7 -2 -9
-11 -6 -19 7 -18 -88 -205 -102 -201 -34 11 -48 132 -19 162 19 18 19 19 -21
33 -25 8 -26 11 -8 11 12 1 32 14 45 30 19 23 27 27 46 20 13 -5 27 -7 30 -5z
m436 -8 c-4 -12 -46 -36 -60 -36 -3 0 4 13 16 30 20 28 54 33 44 6z m46 1 c0
-2 -10 -12 -22 -23 l-23 -19 19 23 c18 21 26 27 26 19z m-2762 -64 c0 -13 -3
-25 -9 -28 -5 -4 -9 7 -9 24 0 16 -3 38 -6 48 -6 15 -4 15 8 -2 8 -11 15 -30
16 -42z m2097 47 c3 -5 2 -10 -4 -10 -5 0 -13 5 -16 10 -3 6 -2 10 4 10 5 0
13 -4 16 -10z m-1788 -32 c-3 -8 -6 -5 -6 6 -1 11 2 17 5 13 3 -3 4 -12 1 -19z
m2548 13 c3 -5 1 -12 -5 -16 -5 -3 -10 1 -10 9 0 18 6 21 15 7z m-2875 -121
c0 -33 3 -41 10 -30 11 18 12 3 1 -25 -7 -17 -9 -15 -16 15 -4 19 -11 40 -15
45 -4 6 -5 35 -2 65 l6 55 7 -40 c4 -22 8 -60 9 -85z m1375 83 c1 -15 6 -36
10 -46 10 -25 1 -31 -19 -12 -23 23 -31 62 -16 80 16 19 21 14 25 -22z m1279
28 c3 -5 -1 -11 -9 -14 -9 -4 -12 -1 -8 9 6 16 10 17 17 5z m-2585 -83 c17
-31 31 -63 30 -70 0 -9 -2 -8 -6 2 -3 8 -19 29 -36 47 -18 20 -31 44 -32 63
-2 37 3 32 44 -42z m-811 32 c-1 -16 -5 -27 -9 -24 -9 5 -4 -34 21 -171 39
-207 28 -236 -60 -169 l-51 39 7 55 c17 153 95 380 92 270z m272 27 c0 -1 -21
-22 -47 -46 -25 -24 -42 -38 -38 -30 5 8 -1 5 -13 -5 -25 -21 -24 -27 15 -151
22 -70 52 -195 53 -217 0 -22 21 -4 28 25 4 17 12 30 18 27 14 -8 6 -42 -16
-65 -18 -20 -19 -22 -2 -70 9 -28 20 -52 25 -53 4 -2 5 -7 2 -11 -6 -11 31
-139 46 -157 6 -7 9 -19 7 -26 -3 -7 -14 8 -26 35 -28 63 -35 60 -11 -5 10
-29 19 -54 19 -56 0 -2 5 0 10 3 13 8 13 -5 0 -25 -11 -17 -12 -14 -90 195
-43 115 -201 467 -241 538 -8 15 -2 21 46 43 31 15 89 32 128 39 85 16 87 16
87 12z m300 -248 c10 -163 10 -190 -4 -223 -9 -21 -19 -35 -24 -32 -7 4 -9
487 -2 506 7 19 21 -94 30 -251z m-1464 210 l19 -22 -32 17 c-35 18 -41 26
-20 26 8 0 22 -10 33 -21z m1390 -45 c14 -4 24 -16 28 -36 3 -17 4 -34 1 -37
-7 -7 -36 23 -38 40 -2 8 -5 14 -9 14 -12 0 -58 48 -58 61 0 8 11 3 27 -12 14
-13 36 -27 49 -30z m2961 -1 c-3 -10 -5 -2 -5 17 0 19 2 27 5 18 2 -10 2 -26
0 -35z m-2658 -27 c6 -4 11 -12 11 -17 0 -13 -35 21 -49 48 -18 36 -12 41 8 7
11 -18 24 -35 30 -38z m2773 22 c-5 -23 -5 -23 16 -4 33 29 40 10 14 -36 -16
-30 -19 -44 -11 -54 8 -10 5 -11 -12 -7 -15 4 -20 3 -15 -5 4 -7 2 -12 -4 -12
-19 0 -22 27 -5 59 9 18 13 36 10 42 -4 5 -4 16 -1 24 9 23 15 17 8 -7z
m-2455 -20 c-3 -8 -6 -5 -6 6 -1 11 2 17 5 13 3 -3 4 -12 1 -19z m-662 -8 c0
-7 -6 -15 -13 -18 -8 -2 -10 3 -6 15 5 17 5 17 -9 0 -9 -10 -15 -38 -15 -67 0
-47 9 -63 23 -40 3 5 12 7 20 3 8 -3 15 0 15 7 0 6 -5 8 -12 4 -8 -5 -9 -2 -4
11 6 16 4 16 -11 4 -15 -13 -16 -12 -11 9 4 12 2 20 -3 16 -5 -3 -9 4 -9 15 0
25 4 26 25 5 15 -15 16 -15 13 -1 -2 9 2 15 7 14 6 -1 9 -10 8 -19 -1 -9 11
-31 27 -48 l29 -31 -10 -119 c-7 -83 -7 -130 0 -157 6 -21 11 -45 11 -53 -1
-21 -30 57 -40 105 -4 22 -8 32 -9 21 0 -10 -12 -29 -26 -42 -16 -15 -25 -35
-26 -56 -1 -19 -3 -25 -6 -15 -7 26 6 89 16 82 13 -7 28 16 33 53 5 36 -8 45
-15 10 -2 -13 -5 5 -6 40 0 35 3 61 7 58 5 -3 6 9 3 27 -3 23 -6 27 -9 12 -7
-33 -19 -38 -14 -5 3 24 1 29 -11 24 -19 -7 -23 0 -31 57 -6 38 -3 50 15 73
21 27 44 30 44 6z m396 -33 c-10 -9 -11 -8 -5 6 3 10 9 15 12 12 3 -3 0 -11
-7 -18z m289 13 c0 -5 -4 -10 -10 -10 -5 0 -10 5 -10 10 0 6 5 10 10 10 6 0
10 -4 10 -10z m-251 -56 c12 -19 16 -32 11 -29 -11 7 -43 65 -36 65 2 0 13
-16 25 -36z m-159 -27 c0 -4 4 -5 10 -2 6 3 7 -1 4 -10 -5 -13 -10 -10 -25 15
-11 17 -19 34 -19 38 1 10 30 -30 30 -41z m130 33 c0 -5 -5 -10 -11 -10 -5 0
-7 5 -4 10 3 6 8 10 11 10 2 0 4 -4 4 -10z m-467 -52 c3 -21 2 -38 -4 -38 -5
0 -9 19 -9 42 0 49 5 47 13 -4z m1064 -30 c-3 -8 -6 -5 -6 6 -1 11 2 17 5 13
3 -3 4 -12 1 -19z m-50 -10 c-3 -8 -6 -5 -6 6 -1 11 2 17 5 13 3 -3 4 -12 1
-19z m973 -92 c0 -66 -2 -75 -23 -89 l-24 -15 20 89 c11 49 22 89 24 89 2 0 3
-33 3 -74z m1407 58 c9 -24 -23 -44 -68 -44 -34 0 -49 12 -49 40 0 10 29 17
78 19 22 1 35 -4 39 -15z m-1226 -80 c-6 -32 -11 -113 -11 -181 0 -68 -2 -123
-5 -123 -3 0 -21 10 -41 23 -42 26 -42 21 19 220 43 141 56 163 38 61z m-2643
-53 c18 -19 34 -60 26 -72 -3 -5 -13 -9 -22 -9 -21 0 -122 61 -122 75 0 5 19
19 43 30 37 18 43 19 51 5 5 -8 16 -21 24 -29z m4009 -31 c5 -25 -13 -43 -35
-36 -25 8 -37 37 -20 48 19 12 52 5 55 -12z m-3557 -130 c-6 -88 -7 -90 -8
-29 -2 59 6 135 13 127 1 -2 -1 -46 -5 -98z m130 70 c0 -5 -4 -10 -10 -10 -5
0 -10 5 -10 10 0 6 5 10 10 10 6 0 10 -4 10 -10z m2806 -37 c-13 -24 -15 -25
-16 -7 0 11 5 25 12 32 19 19 21 6 4 -25z m-2899 -35 c-2 -13 -4 -3 -4 22 0
25 2 35 4 23 2 -13 2 -33 0 -45z m-588 20 c80 -126 76 -116 55 -139 -10 -12
-59 -54 -109 -94 -93 -75 -225 -198 -225 -210 0 -3 5 -3 12 1 7 4 8 3 4 -5 -4
-6 -12 -8 -18 -5 -7 5 -9 2 -6 -8 4 -8 1 -15 -6 -15 -14 0 -13 3 59 187 36 92
77 156 169 261 23 26 43 47 46 48 3 1 12 -9 19 -21z m754 -50 c6 -22 5 -22 -8
-4 -17 22 -20 40 -6 32 5 -3 11 -16 14 -28z m1297 17 c7 -8 8 -15 2 -15 -5 0
-15 7 -22 15 -7 8 -8 15 -2 15 5 0 15 -7 22 -15z m-1332 -20 c-3 -3 -9 2 -12
12 -6 14 -5 15 5 6 7 -7 10 -15 7 -18z m-131 -37 c-3 -8 -6 -5 -6 6 -1 11 2
17 5 13 3 -3 4 -12 1 -19z m203 -13 c14 -19 14 -19 -2 -6 -10 7 -18 18 -18 24
0 6 1 8 3 6 1 -2 9 -13 17 -24z m4200 4 c0 -5 -7 -9 -15 -9 -8 0 -15 7 -15 15
0 9 6 12 15 9 8 -4 15 -10 15 -15z m-4428 -35 c-6 -11 -11 -13 -16 -5 -4 6 -2
11 3 11 6 0 11 8 12 18 0 9 3 12 5 5 3 -7 1 -20 -4 -29z m1664 -122 c30 -62
54 -115 54 -117 0 -2 -23 8 -50 21 -45 22 -50 27 -47 52 3 15 1 32 -3 37 -4 6
-10 42 -12 80 -3 39 -3 63 0 55 2 -8 29 -66 58 -128z m-1392 83 l17 -30 -20
24 c-12 13 -21 28 -21 34 0 12 0 11 24 -28z m1503 -125 c28 -40 53 -120 38
-120 -23 0 -68 37 -84 68 -35 68 -62 161 -55 188 6 24 9 22 38 -33 17 -32 45
-78 63 -103z m-4492 94 c24 -37 11 -41 -15 -5 -12 17 -17 31 -12 31 5 0 17
-12 27 -26z m4619 -183 c9 -24 14 -46 12 -48 -2 -2 -15 10 -30 27 -29 35 -29
41 -19 156 l7 79 7 -85 c4 -47 15 -105 23 -129z m-1866 164 c-3 -3 -9 2 -12
12 -6 14 -5 15 5 6 7 -7 10 -15 7 -18z m3479 -15 c7 0 13 -4 13 -10 0 -5 -11
-10 -25 -10 -22 0 -25 4 -24 33 0 30 1 31 11 10 6 -13 17 -23 25 -23z m528
-10 c3 -5 -1 -10 -9 -10 -9 0 -16 5 -16 10 0 6 4 10 9 10 6 0 13 -4 16 -10z
m-4560 -97 c-3 -29 -11 -55 -16 -58 -12 -8 -11 15 3 94 14 76 24 49 13 -36z
m1831 26 c-3 -17 -6 -42 -6 -55 0 -13 -4 -24 -10 -24 -5 0 -10 11 -10 24 0 40
12 86 23 86 5 0 7 -13 3 -31z m3910 -36 c-10 -10 -19 5 -10 18 6 11 8 11 12 0
2 -7 1 -15 -2 -18z m-3626 -18 c0 -5 -5 -3 -10 5 -5 8 -10 20 -10 25 0 6 5 3
10 -5 5 -8 10 -19 10 -25z m140 -28 l84 -42 33 -99 c32 -96 59 -153 70 -143 2
3 -2 16 -11 29 -21 33 -46 116 -46 156 l0 34 31 -19 c22 -12 38 -36 55 -77 25
-61 43 -90 52 -81 3 3 -2 13 -11 23 -15 17 -51 102 -42 102 10 0 174 -102 293
-182 74 -49 136 -87 139 -84 3 2 -11 15 -31 28 -20 13 -36 27 -36 31 0 5 18
-6 40 -23 22 -17 38 -36 35 -40 -3 -5 2 -13 12 -18 13 -8 14 -14 7 -24 -6 -7
-23 -65 -39 -128 -19 -78 -43 -146 -76 -211 -27 -53 -49 -102 -49 -108 0 -6
-3 -11 -7 -11 -14 0 -187 211 -264 321 -42 60 -90 125 -108 144 -17 19 -31 38
-31 43 0 12 -37 41 -44 35 -12 -12 -6 13 7 26 10 11 8 12 -9 3 -17 -9 -25 -8
-38 7 -9 10 -14 21 -11 24 3 4 2 5 -1 2 -11 -8 -44 15 -44 31 0 9 5 12 13 8 6
-4 9 -3 4 1 -4 5 1 17 10 27 14 15 14 21 3 31 -10 9 -11 9 -5 -1 4 -8 -1 -22
-11 -33 -16 -18 -19 -18 -35 -3 -10 9 -16 21 -13 25 3 5 1 9 -4 9 -6 0 -15 13
-20 29 -9 25 -8 30 8 34 13 3 17 0 13 -9 -4 -10 0 -12 12 -8 14 6 16 3 11 -14
-4 -11 -2 -23 3 -27 7 -4 8 1 4 11 -5 13 -3 16 10 11 19 -7 14 14 -15 55 -25
37 -58 109 -58 131 0 25 15 21 110 -26z m2480 29 c0 -8 -5 -18 -11 -22 -14 -8
-33 11 -25 25 10 16 36 13 36 -3z m-3760 -41 c-7 -8 -24 -15 -39 -15 l-26 1
25 14 c35 20 57 20 40 0z m1470 -67 c0 -19 -64 34 -67 54 -3 20 0 19 31 -12
20 -19 36 -38 36 -42z m3305 42 c0 -21 -83 -34 -114 -18 -23 12 -22 13 20 25
56 15 94 12 94 -7z m-157 -5 c10 -10 -6 -16 -57 -22 -41 -5 -51 -3 -51 9 0 8
3 18 8 22 7 8 91 0 100 -9z m-4678 -3 c0 -24 -37 -38 -92 -34 -32 2 -58 7 -58
11 0 4 28 12 63 18 87 14 87 14 87 5z m1190 -84 c11 -20 24 -39 30 -43 5 -3
10 -13 10 -21 0 -10 -5 -9 -20 6 -11 11 -20 28 -20 38 0 14 -2 15 -10 2 -9
-13 -10 -13 -10 1 0 8 -11 25 -25 37 -25 22 -31 42 -18 56 9 8 36 -25 63 -76z
m-1367 47 c-17 -23 -41 -36 -28 -15 3 6 2 10 -4 10 -16 0 -22 -18 -9 -23 9 -3
10 -8 3 -16 -8 -8 -20 -8 -45 1 -19 7 -37 14 -39 16 -11 7 48 38 84 43 22 3
44 7 48 7 4 1 0 -9 -10 -23z m3783 10 c8 -19 -13 -45 -36 -45 -9 0 -30 -6 -46
-14 -19 -10 -45 -13 -76 -9 -47 5 -68 23 -28 23 11 0 20 4 20 8 0 15 60 43 80
37 11 -3 28 -2 37 4 26 15 43 13 49 -4z m-3298 -25 c2 -5 9 -7 17 -4 7 3 19
-8 29 -26 13 -27 13 -30 1 -20 -8 7 -15 19 -15 26 0 17 -20 19 -21 2 0 -10 -2
-10 -6 -1 -3 9 -9 9 -22 2 -15 -10 -14 -14 14 -44 16 -18 40 -38 52 -44 19
-10 22 -9 16 5 -5 14 -3 14 15 3 11 -7 18 -17 16 -21 -6 -9 10 -11 19 -2 3 3
-6 17 -20 30 -35 33 -21 30 27 -5 l40 -29 -25 -20 c-15 -12 -21 -23 -15 -27 6
-3 8 -11 4 -16 -3 -6 2 -19 12 -30 13 -14 14 -18 3 -14 -19 7 -43 45 -28 45 5
0 7 5 4 10 -3 6 -13 10 -22 10 -8 0 -28 10 -45 21 -23 17 -27 24 -16 31 10 7
9 8 -5 4 -22 -7 -69 13 -60 27 3 5 -2 7 -13 3 -11 -3 -36 0 -58 8 -32 11 -35
14 -17 19 12 3 21 2 21 -3 0 -4 9 -10 20 -13 11 -3 20 -1 20 4 0 5 -7 9 -15 9
-8 0 -19 9 -25 19 -14 28 -13 34 8 26 14 -5 15 -4 4 6 -10 11 -15 10 -29 -4
-11 -11 -13 -17 -5 -17 7 0 12 -4 12 -10 0 -5 -7 -10 -15 -10 -20 0 -19 29 2
53 15 16 26 18 68 12 27 -3 51 -10 53 -15z m3397 -11 c0 -28 -29 -38 -39 -13
-7 19 11 47 28 41 6 -2 11 -14 11 -28z m216 9 l31 -23 -59 -10 c-53 -9 -58
-12 -58 -35 0 -29 -28 -35 -33 -7 -2 9 2 17 8 17 7 0 2 8 -11 18 -33 27 -19
50 33 55 24 2 47 4 51 5 4 1 22 -8 38 -20z m447 1 c4 -19 -44 -44 -51 -26 -7
20 13 48 31 45 9 -2 18 -10 20 -19z m-5357 -2 c-6 -8 -50 -31 -98 -52 -49 -22
-91 -43 -94 -47 -3 -5 -42 -21 -86 -37 -45 -16 -109 -49 -144 -74 -35 -25 -88
-61 -118 -78 -34 -20 -58 -43 -65 -61 -14 -37 -26 -36 -26 3 0 23 9 40 35 64
50 45 240 173 269 181 13 3 63 26 112 51 97 50 129 60 188 62 31 1 36 -2 27
-12z m494 -23 c-8 -16 -15 -37 -15 -47 0 -15 -15 -53 -26 -66 -1 -1 -20 -5
-41 -8 -54 -7 -64 -15 -85 -64 -15 -36 -18 -38 -14 -14 3 17 8 39 11 50 6 16
5 17 -4 5 -6 -8 -16 -32 -22 -53 -8 -30 -7 -44 6 -70 9 -18 18 -47 21 -64 3
-28 1 -33 -17 -33 -18 0 -97 -39 -156 -78 -28 -17 -57 -72 -40 -72 7 0 3 -7
-7 -15 -18 -14 -18 -15 -2 -15 9 0 15 -4 11 -9 -3 -5 -1 -12 5 -16 15 -9 12
-25 -4 -19 -16 6 -31 -12 -17 -20 12 -8 63 33 56 44 -3 5 -11 7 -19 4 -7 -3
-13 2 -13 10 0 8 11 17 23 20 12 3 29 12 36 19 14 13 118 78 118 74 0 -2 -22
-27 -49 -56 -33 -36 -54 -51 -63 -46 -7 5 -10 5 -6 0 4 -4 -6 -25 -22 -45 -34
-43 -96 -84 -105 -69 -4 5 1 9 9 9 9 0 16 5 16 11 0 5 -6 7 -12 3 -9 -6 -9 -3
0 9 8 9 10 22 6 28 -4 7 -3 9 3 6 6 -4 14 0 17 8 6 16 -19 33 -31 21 -4 -3 2
-6 13 -6 14 -1 11 -5 -11 -14 -22 -10 -34 -10 -44 -2 -12 9 -13 8 -8 -6 3 -10
5 -18 3 -18 -3 0 -12 -3 -22 -7 -12 -4 -15 -3 -10 5 5 8 2 10 -9 6 -9 -4 -14
-13 -11 -20 3 -7 0 -16 -6 -20 -7 -4 -8 -3 -4 4 4 7 2 12 -3 12 -6 0 -11 -6
-11 -13 0 -7 -9 -18 -20 -25 -12 -7 -20 -8 -20 -2 0 11 -28 9 -47 -3 -8 -5
-25 4 -44 23 -18 16 -35 30 -40 30 -4 0 -14 3 -23 6 -11 4 -16 1 -16 -10 0
-21 -6 -20 -32 3 -11 11 -26 17 -33 14 -9 -3 -15 5 -18 24 -2 15 -4 -5 -4 -45
0 -40 3 -75 8 -78 5 -3 9 0 9 7 0 7 3 10 6 6 12 -12 -7 -28 -21 -17 -34 28 9
373 56 440 8 11 9 9 3 -10 -3 -14 -3 -21 2 -17 4 4 8 20 9 35 0 49 116 93 365
137 116 20 268 69 287 92 14 17 14 17 9 0 -3 -11 -2 -16 4 -12 6 3 10 13 10
21 0 19 51 39 60 24 4 -7 15 -4 31 9 30 24 33 21 14 -15z m4603 4 c8 -8 9 -15
1 -25 -15 -17 -44 -17 -58 1 -10 11 -8 17 6 25 24 14 36 14 51 -1z m-4318 -32
c39 -7 82 -11 95 -8 29 5 32 -8 7 -31 -14 -13 -25 -15 -51 -7 -18 5 -39 14
-47 21 -8 6 -14 8 -14 3 0 -5 -5 -2 -11 6 -8 11 -12 12 -16 3 -6 -15 -33 -17
-33 -3 0 11 -32 1 -42 -13 -3 -6 3 -19 13 -30 23 -25 23 -31 6 -49 -8 -7 -12
-19 -9 -26 3 -9 -9 -7 -37 7 -38 20 -40 23 -30 48 5 15 22 46 37 69 22 33 30
40 44 33 10 -5 49 -15 88 -23z m396 -106 c-1 -8 -5 -21 -10 -28 -7 -11 -4 -11
13 -1 14 10 17 15 8 21 -9 6 -9 8 0 8 19 0 24 -17 8 -30 -7 -6 -12 -17 -9 -25
3 -8 -1 -12 -13 -12 -12 2 -21 -9 -29 -33 -6 -19 -14 -34 -18 -32 -14 5 -26 1
-26 -9 0 -18 -32 -38 -44 -28 -6 5 -21 17 -34 27 l-22 17 30 33 c17 17 28 32
24 32 -4 0 -5 3 -1 6 3 4 18 -3 33 -15 31 -25 54 -27 54 -6 0 8 -6 15 -13 15
-7 0 -28 13 -47 28 l-33 28 19 32 c21 36 39 43 31 12 -3 -11 -1 -18 4 -14 14
8 11 -10 -5 -31 -12 -17 -12 -21 3 -32 9 -7 21 -12 26 -12 6 0 2 4 -7 10 -10
5 -18 15 -18 20 0 6 5 7 12 3 6 -4 8 -3 5 4 -10 15 3 43 16 35 6 -3 7 -1 3 6
-4 6 -12 9 -17 6 -5 -4 -9 4 -9 15 0 21 1 21 34 -7 19 -15 33 -35 32 -43z
m-1441 -40 c3 -5 0 -8 -7 -5 -14 6 -128 -61 -128 -75 0 -5 -9 -7 -20 -5 -16 3
-27 -12 -62 -86 -35 -74 -46 -89 -63 -87 -14 2 -21 12 -23 31 -3 24 10 42 89
122 73 73 101 95 133 103 56 13 74 14 81 2z m1070 -12 c29 -13 33 -28 7 -28
-19 0 -42 18 -42 32 0 11 4 10 35 -4z m-260 -38 c10 -11 16 -20 13 -20 -3 0
-13 9 -23 20 -10 11 -16 20 -13 20 3 0 13 -9 23 -20z m-899 -35 c-9 -9 -16
-13 -16 -8 0 12 22 34 28 28 2 -2 -3 -11 -12 -20z m1934 10 c0 -2 -10 -9 -22
-15 -22 -11 -22 -10 -4 4 21 17 26 19 26 11z m-1173 -11 c-3 -3 -12 -4 -19 -1
-8 3 -5 6 6 6 11 1 17 -2 13 -5z m819 -29 c-4 -41 -4 -42 -31 -47 -17 -2 -20
3 -21 32 -1 26 -1 28 3 8 4 -26 33 -41 33 -17 0 5 -4 7 -10 4 -5 -3 -2 8 8 24
9 17 18 31 19 31 1 0 0 -16 -1 -35z m-1616 1 c0 -2 -8 -10 -17 -17 -16 -13
-17 -12 -4 4 13 16 21 21 21 13z m3465 -54 c14 -65 14 -64 -1 -51 -8 7 -12 21
-8 38 l5 26 -14 -24 c-14 -24 -15 -24 -18 16 -4 37 -2 40 13 32 10 -5 20 -22
23 -37z m-56 -26 c-9 -8 -10 -7 -5 7 3 10 7 26 7 35 1 9 4 6 6 -7 3 -13 -1
-28 -8 -35z m-2377 27 c24 -21 23 -33 -2 -33 -11 0 -20 4 -20 9 0 5 -3 16 -6
25 -8 21 5 20 28 -1z m369 -15 c8 -14 8 -18 0 -14 -7 5 -9 -4 -6 -26 5 -28 4
-30 -4 -10 -6 12 -13 22 -16 22 -4 0 -4 -4 -1 -9 9 -13 -31 -20 -43 -8 -17 17
-13 30 9 24 11 -3 18 -1 15 4 -7 11 17 49 27 43 4 -3 13 -14 19 -26z m135 -33
c-3 -8 -13 -15 -23 -15 -17 1 -16 2 1 15 11 8 16 15 12 15 -4 0 -4 5 0 12 10
16 18 -6 10 -27z m2258 -6 c-8 -14 -34 -11 -34 4 0 8 3 17 7 20 9 9 34 -13 27
-24z m-2309 1 c3 -5 1 -10 -4 -10 -6 0 -11 5 -11 10 0 6 2 10 4 10 3 0 8 -4
11 -10z m215 -6 c0 -8 -19 -13 -24 -6 -3 5 1 9 9 9 8 0 15 -2 15 -3z m2455
-30 c24 -25 1 -44 -52 -44 -45 0 -61 14 -49 45 8 21 80 20 101 -1z m342 -41
c-16 -16 -18 -16 -34 0 -17 17 -17 19 2 33 17 12 21 12 34 -1 14 -13 13 -17
-2 -32z m127 31 c20 -19 20 -28 1 -44 -12 -10 -21 -10 -40 -2 -27 13 -32 31
-13 50 16 16 33 15 52 -4z m56 -14 c0 -5 -4 -10 -10 -10 -5 0 -10 5 -10 10 0
6 5 10 10 10 6 0 10 -4 10 -10z m-6241 -87 c1 -24 -3 -43 -8 -43 -10 0 -22
100 -13 114 9 15 21 -25 21 -71z m3001 52 c14 -19 14 -19 -2 -6 -10 7 -18 18
-18 24 0 6 1 8 3 6 1 -2 9 -13 17 -24z m2470 0 c12 -14 50 -85 50 -93 0 -3 -7
2 -16 9 -16 13 -64 84 -64 94 0 10 18 5 30 -10z m-2416 -21 c3 -8 2 -12 -4 -9
-6 3 -10 10 -10 16 0 14 7 11 14 -7z m192 -23 c0 -11 -5 -17 -13 -14 -10 4
-11 9 -2 19 15 18 15 18 15 -5z m-26 -42 c0 -15 -7 -42 -15 -60 l-14 -34 -1
66 c0 36 3 69 7 72 10 11 23 -14 23 -44z m1704 35 c3 -8 2 -12 -4 -9 -6 3 -10
10 -10 16 0 14 7 11 14 -7z m-2186 -14 c15 0 15 -1 0 -16 -19 -19 -48 -12 -48
12 0 11 5 14 16 10 9 -3 23 -6 32 -6z m-1378 -100 c-6 -51 -18 -106 -26 -122
-14 -28 -14 -32 7 -63 13 -18 27 -31 31 -29 4 3 5 -2 2 -10 -10 -25 -22 -19
-59 32 -48 65 -51 83 -26 150 25 65 70 146 78 139 2 -3 0 -47 -7 -97z m2245
82 c-3 -3 -11 0 -18 7 -9 10 -8 11 6 5 10 -3 15 -9 12 -12z m1325 -23 c0 -5 8
-6 18 -3 13 5 14 4 3 -4 -7 -5 -10 -16 -6 -23 4 -8 -3 -3 -15 11 -19 22 -20
22 -11 3 6 -12 15 -25 21 -28 11 -7 35 -58 45 -95 4 -16 3 -20 -3 -12 -5 7
-15 12 -23 10 -8 -2 -13 3 -11 10 1 8 -1 11 -6 8 -5 -3 -27 10 -48 28 -30 26
-36 36 -28 47 6 8 14 26 18 41 4 20 11 25 26 21 11 -3 20 -9 20 -14z m1150 16
c0 -2 -19 -14 -42 -25 l-43 -21 30 26 c27 22 55 33 55 20z m121 -10 c-1 -15
-24 -12 -29 3 -3 9 2 13 12 10 10 -1 17 -7 17 -13z m-3317 -23 c12 -15 15 -27
9 -33 -14 -14 -39 -2 -51 26 -19 41 10 46 42 7z m187 11 c13 -16 12 -17 -3 -4
-10 7 -18 15 -18 17 0 8 8 3 21 -13z m53 -8 c11 -8 16 -15 10 -15 -5 0 -18 7
-28 15 -11 8 -16 15 -10 15 5 0 18 -7 28 -15z m-1124 -4 c0 -5 -7 -12 -16 -15
-14 -5 -15 -4 -4 9 14 17 20 19 20 6z m3456 -36 c12 -39 -1 -60 -30 -49 -24 9
-23 84 2 84 11 0 21 -12 28 -35z m364 -4 c0 -15 -29 -33 -45 -27 -18 7 -20 43
-2 49 14 5 47 -10 47 -22z m-4202 -6 c-3 -3 -9 2 -12 12 -6 14 -5 15 5 6 7 -7
10 -15 7 -18z m332 15 c-12 -8 -12 -10 -1 -10 8 0 12 -3 8 -6 -9 -9 -28 6 -22
17 4 5 12 9 18 9 7 0 6 -4 -3 -10z m1173 -5 c-3 -9 -8 -14 -10 -11 -3 3 -2 9
2 15 9 16 15 13 8 -4z m-1199 -37 c-8 -12 8 -9 36 7 14 8 30 14 35 14 6 0 -7
-9 -28 -20 -21 -11 -42 -17 -46 -14 -5 3 -21 1 -36 -5 -17 -7 -24 -7 -20 0 3
6 13 10 21 10 8 0 12 4 9 10 -3 6 1 7 10 4 11 -5 14 -2 9 12 -5 15 -4 16 4 4
6 -8 8 -18 6 -22z m4499 1 c-4 -13 -9 -17 -16 -10 -12 12 -1 45 12 37 5 -3 7
-15 4 -27z m-1506 -50 c17 -15 29 -30 26 -33 -4 -3 0 -6 7 -6 15 0 60 -39 60
-52 0 -10 -157 69 -166 83 -3 6 -3 22 0 35 7 28 6 29 73 -27z m186 36 c4 -8 2
-17 -3 -20 -6 -4 -10 3 -10 14 0 25 6 27 13 6z m1253 -6 c10 -17 -13 -36 -27
-22 -12 12 -4 33 11 33 5 0 12 -5 16 -11z m-4579 -15 c-3 -3 -12 -4 -19 -1 -8
3 -5 6 6 6 11 1 17 -2 13 -5z m67 -30 c-22 -13 -43 -24 -49 -24 -5 0 5 9 23
20 18 11 31 24 27 29 -3 5 5 7 16 4 19 -5 18 -8 -17 -29z m1222 -3 c-3 -4 1
-17 9 -27 8 -10 14 -26 14 -34 0 -8 -5 -4 -10 9 -5 13 -12 22 -14 19 -3 -3 6
-34 20 -69 14 -35 23 -52 20 -37 -3 14 -8 33 -11 42 -3 9 -1 16 5 16 6 0 11
-9 11 -21 0 -11 5 -17 10 -14 10 6 21 -16 34 -65 5 -22 4 -21 -8 4 -9 20 -15
25 -21 16 -4 -7 -3 -15 2 -19 5 -3 13 -15 17 -26 7 -20 8 -20 22 0 8 11 12 25
10 32 -3 6 0 14 7 17 9 3 9 6 0 13 -8 6 -8 13 2 27 12 16 13 13 9 -29 -2 -26
-8 -53 -14 -60 -5 -6 -7 -15 -3 -18 3 -4 2 -7 -3 -7 -5 0 -10 -17 -12 -37 -3
-47 1 -42 27 37 13 36 25 72 28 80 4 8 6 18 5 21 -1 3 11 4 26 1 l27 -6 -24
-6 c-14 -3 -27 -12 -29 -19 -3 -8 0 -11 7 -7 13 8 14 4 5 -18 -3 -9 -10 -13
-15 -10 -5 3 -9 -4 -9 -15 0 -12 3 -21 6 -21 9 0 49 22 54 31 3 4 18 11 33 14
31 8 38 -13 11 -35 -25 -22 -66 -99 -58 -111 4 -8 3 -9 -4 -5 -17 10 -46 -52
-32 -69 9 -11 6 -13 -14 -11 -14 2 -32 8 -40 15 -11 9 -15 8 -20 -4 -4 -11 -2
-14 6 -9 8 5 9 2 5 -9 -3 -9 -1 -19 5 -23 7 -4 8 -3 4 4 -4 7 -2 12 3 12 6 0
11 -7 11 -15 0 -8 3 -15 8 -15 4 0 13 -10 21 -22 14 -23 13 -23 -7 -5 -12 11
-23 14 -26 9 -3 -6 -3 -12 1 -15 5 -2 2 -2 -5 0 -25 6 -103 -20 -116 -39 -13
-18 -14 -18 -32 13 l-19 33 34 70 c23 47 35 87 36 119 2 66 -13 197 -25 225
-7 16 -7 29 0 43 8 14 7 19 -2 19 -11 0 -11 2 0 8 7 5 10 17 7 28 -6 17 -6 18
5 1 6 -9 9 -21 6 -26z m3702 16 c4 -21 -25 -34 -40 -19 -8 8 -8 16 2 27 16 19
34 15 38 -8z m-5023 -9 c-9 -6 -19 -7 -22 -4 -4 3 -1 6 6 6 7 0 9 4 6 10 -4 6
1 7 11 3 15 -6 15 -7 -1 -15z m5892 -2 c-6 -18 -57 -20 -57 -2 0 15 26 25 48
18 7 -2 11 -10 9 -16z m-5937 4 c18 -12 2 -12 -25 0 -13 6 -15 9 -5 9 8 0 22
-4 30 -9z m220 1 c0 -5 -7 -12 -16 -15 -14 -5 -15 -4 -4 9 14 17 20 19 20 6z
m3211 -8 c13 -16 12 -17 -3 -4 -17 13 -22 21 -14 21 2 0 10 -8 17 -17z m163
-8 c4 -14 17 -32 31 -41 47 -30 17 -87 -32 -61 -26 15 -69 67 -54 67 6 0 11 8
11 18 0 18 18 42 31 42 4 0 10 -11 13 -25z m-2177 -57 c-3 -8 -6 -5 -6 6 -1
11 2 17 5 13 3 -3 4 -12 1 -19z m1845 -19 c16 -8 17 -13 7 -25 -10 -12 -9 -13
5 -8 12 5 15 2 10 -10 -3 -9 -1 -16 5 -16 6 0 11 -8 11 -17 -1 -17 -2 -16 -15
1 -11 15 -17 16 -28 8 -8 -7 -17 -9 -20 -5 -4 3 -13 0 -21 -6 -11 -10 -17 -8
-30 10 -8 13 -18 20 -21 17 -3 -3 6 -20 21 -37 14 -18 24 -35 20 -38 -7 -7
-43 35 -51 60 -4 9 -10 17 -15 17 -5 0 -19 15 -31 33 -19 25 -19 29 -4 17 17
-14 18 -14 6 9 -8 15 -9 21 -2 17 6 -4 11 -3 11 2 0 10 112 -13 142 -29z
m-3611 14 c13 -16 12 -17 -3 -4 -17 13 -22 21 -14 21 2 0 10 -8 17 -17z m1839
-4 c0 -5 -4 -9 -10 -9 -5 0 -10 7 -10 16 0 8 5 12 10 9 6 -3 10 -10 10 -16z
m4700 -9 c0 -23 -24 -42 -44 -34 -21 8 -21 40 1 52 22 13 43 4 43 -18z m-2449
-22 c-11 -18 -21 -29 -21 -25 0 13 33 67 38 62 3 -2 -5 -19 -17 -37z m2159 9
c8 -3 45 -9 83 -12 111 -11 130 -58 28 -69 -31 -4 -74 -16 -95 -27 -36 -19
-39 -19 -64 -3 -25 16 -26 16 -44 -10 -25 -33 -41 -33 -63 0 l-17 26 -19 -21
c-39 -41 -69 -19 -69 50 0 70 9 75 136 73 60 -1 116 -4 124 -7z m-875 -27 c-3
-5 -12 -10 -20 -10 -8 0 -17 5 -20 10 -4 6 5 10 20 10 15 0 24 -4 20 -10z
m-2889 -50 c-27 -42 -51 -54 -38 -21 10 26 52 74 59 67 3 -3 -6 -24 -21 -46z
m2084 40 c0 -5 -4 -10 -10 -10 -5 0 -10 5 -10 10 0 6 5 10 10 10 6 0 10 -4 10
-10z m-140 -10 c0 -10 -6 -12 -40 -12 -38 0 -45 3 -25 12 28 12 65 12 65 0z
m-440 -8 c0 -15 -11 -21 -27 -15 -12 5 -12 7 -1 14 17 11 28 11 28 1z m1310
-27 c0 -8 -4 -15 -9 -15 -13 0 -22 16 -14 24 11 11 23 6 23 -9z m-4392 -63
c-136 -126 -164 -150 -185 -161 -47 -24 -20 9 72 89 78 69 158 128 173 130 1
0 -26 -26 -60 -58z m3316 23 c3 -9 -1 -18 -10 -22 -19 -7 -39 11 -30 26 10 16
33 13 40 -4z m2334 -18 c3 -23 0 -27 -22 -27 -26 0 -32 13 -20 45 10 25 39 13
42 -18z m-5212 -25 c-14 -28 -83 -88 -91 -80 -6 6 85 108 96 108 5 0 3 -13 -5
-28z m4568 -17 c23 -45 51 -55 88 -32 13 8 47 20 76 27 64 15 79 6 86 -54 3
-24 13 -44 26 -53 14 -10 20 -23 18 -41 -4 -33 -34 -40 -170 -44 -111 -3 -137
8 -119 53 14 38 -7 66 -76 98 -33 16 -63 33 -66 38 -10 16 9 35 44 43 56 14
71 8 93 -35z m-3957 13 c-3 -8 -6 -5 -6 6 -1 11 2 17 5 13 3 -3 4 -12 1 -19z
m1638 12 c3 -5 1 -10 -4 -10 -6 0 -11 5 -11 10 0 6 2 10 4 10 3 0 8 -4 11 -10z
m1843 -17 c-4 -32 -38 -46 -38 -16 0 20 18 43 33 43 4 0 7 -12 5 -27z m-853 7
c10 -15 -5 -50 -20 -50 -24 0 -35 32 -17 47 21 15 29 16 37 3z m1824 1 c19
-12 6 -41 -18 -41 -23 0 -35 15 -27 35 6 17 24 19 45 6z m-4478 -48 c-12 -20
-14 -14 -5 12 4 9 9 14 11 11 3 -2 0 -13 -6 -23z m3632 -10 c16 -13 33 -23 38
-23 4 0 16 -11 25 -26 26 -40 7 -49 -109 -52 -56 -1 -137 -5 -181 -8 -50 -4
-82 -2 -89 5 -18 18 4 30 79 40 83 12 143 35 151 59 16 46 35 47 86 5z m-1161
-88 c43 -69 48 -92 19 -73 -11 7 -24 21 -30 32 -5 12 -22 41 -37 64 -23 39
-24 43 -8 40 10 -2 35 -30 56 -63z m-2506 35 c0 -11 -6 -22 -13 -24 -16 -6
-16 -1 -3 25 13 24 16 24 16 -1z m1154 -58 c0 -15 -2 -15 -10 -2 -13 20 -13
33 0 25 6 -3 10 -14 10 -23z m-1132 -17 c-3 -3 -9 2 -12 12 -6 14 -5 15 5 6 7
-7 10 -15 7 -18z m4652 -44 c0 -11 -4 -22 -9 -25 -12 -8 -34 21 -26 34 11 17
35 11 35 -9z m-1029 -21 c25 -14 25 -40 0 -40 -33 0 -51 11 -51 31 0 21 21 25
51 9z m-6298 -30 c3 -11 2 -20 -3 -20 -4 0 -10 9 -13 20 -3 11 -2 20 3 20 4 0
10 -9 13 -20z m7255 -8 c2 -7 -3 -12 -12 -12 -9 0 -16 7 -16 16 0 17 22 14 28
-4z m-4538 -22 c23 -19 45 -28 57 -25 10 3 5 -1 -12 -9 -16 -7 -45 -17 -62
-21 l-33 -7 0 46 c0 25 3 46 6 46 3 0 23 -14 44 -30z m3823 -13 c6 -16 -3 -67
-12 -67 -11 0 -41 61 -35 71 8 14 41 11 47 -4z m156 -25 c-21 -4 -69 15 -69
27 0 5 19 2 42 -7 24 -9 36 -18 27 -20z m-4129 -38 c0 -24 0 -24 31 -9 17 9
33 15 35 12 4 -4 -71 -57 -81 -57 -3 0 -5 21 -5 46 0 27 4 43 10 39 6 -3 10
-17 10 -31z m4674 -45 c-7 -13 -31 -11 -40 2 -9 16 18 30 33 17 7 -6 10 -14 7
-19z m-1018 -66 c-11 -11 -19 6 -11 24 8 17 8 17 12 0 3 -10 2 -21 -1 -24z
m-3435 -56 c-13 -13 -15 41 -3 70 5 13 8 8 10 -21 2 -21 -1 -43 -7 -49z m-142
14 c31 -17 16 -31 -34 -31 -53 0 -60 9 -43 56 l13 36 21 -25 c12 -14 31 -30
43 -36z m791 42 c68 -45 101 -93 63 -93 -20 0 -63 38 -63 56 0 7 -9 18 -20 24
-20 10 -28 30 -12 30 4 0 19 -7 32 -17z m2595 -3 c17 -7 15 -9 -12 -9 -18 -1
-33 4 -33 9 0 12 17 12 45 0z m1239 -103 c-2 -136 -9 -156 -35 -103 -32 65
-13 226 25 213 7 -3 11 -41 10 -110z m-1604 38 c-24 -25 -51 -45 -60 -45 -9 0
3 18 32 45 61 59 85 58 28 0z m-2673 5 c-31 -24 -29 -24 -69 0 l-33 20 64 0
64 0 -26 -20z m329 -82 c-23 -39 -98 -106 -120 -107 -5 -1 24 33 65 74 40 41
75 75 77 75 2 0 -8 -19 -22 -42z"/>
<path d="M2785 4160 c-3 -5 -1 -10 4 -10 6 0 11 5 11 10 0 6 -2 10 -4 10 -3 0
-8 -4 -11 -10z"/>
<path d="M3415 4130 c-3 -5 1 -10 10 -10 9 0 13 5 10 10 -3 6 -8 10 -10 10 -2
0 -7 -4 -10 -10z"/>
<path d="M3365 4040 c-3 -6 1 -7 9 -4 18 7 21 14 7 14 -6 0 -13 -4 -16 -10z"/>
<path d="M3385 4021 c-3 -5 -1 -12 5 -16 6 -4 7 -12 4 -18 -4 -7 -1 -6 7 2 11
10 11 15 1 18 -6 3 -10 9 -6 14 3 5 3 9 0 9 -3 0 -7 -4 -11 -9z"/>
<path d="M3251 4003 c0 -11 3 -13 6 -5 2 6 9 10 13 7 5 -3 11 -1 15 5 3 5 -3
10 -14 10 -14 0 -21 -6 -20 -17z"/>
<path d="M3235 3860 c-16 -17 -16 -20 -3 -15 9 4 19 13 22 21 7 19 2 18 -19
-6z"/>
<path d="M3441 3803 c13 -16 25 -30 27 -32 1 -2 2 3 2 12 0 18 -26 47 -42 47
-7 0 -1 -12 13 -27z"/>
<path d="M3480 3640 c-6 -11 -8 -20 -6 -20 3 0 10 9 16 20 6 11 8 20 6 20 -3
0 -10 -9 -16 -20z"/>
<path d="M3170 3575 c0 -8 4 -15 10 -15 5 0 7 7 4 15 -4 8 -8 15 -10 15 -2 0
-4 -7 -4 -15z"/>
<path d="M2650 3327 c0 -2 15 -16 33 -33 l32 -29 -29 33 c-28 30 -36 37 -36
29z"/>
<path d="M5980 2940 c0 -19 3 -21 12 -12 9 9 9 15 0 24 -9 9 -12 7 -12 -12z"/>
<path d="M5920 2890 c0 -5 7 -7 15 -4 8 4 15 8 15 10 0 2 -7 4 -15 4 -8 0 -15
-4 -15 -10z"/>
<path d="M5966 2877 c-14 -56 -100 -130 -171 -148 l-30 -7 28 -1 c15 -1 45 8
66 18 38 20 101 83 101 102 0 6 5 7 12 3 7 -4 8 -3 4 4 -4 6 -2 21 4 32 6 11
7 20 1 20 -5 0 -11 -10 -15 -23z"/>
<path d="M5964 2591 c3 -5 17 -8 31 -8 14 0 25 3 25 8 0 5 -14 9 -31 9 -16 0
-28 -4 -25 -9z"/>
<path d="M5910 2400 c0 -5 5 -10 10 -10 6 0 10 5 10 10 0 6 -4 10 -10 10 -5 0
-10 -4 -10 -10z"/>
<path d="M5750 2390 c-10 -7 9 -8 60 -4 41 4 77 8 79 10 10 9 -126 3 -139 -6z"/>
<path d="M5683 2383 c9 -2 23 -2 30 0 6 3 -1 5 -18 5 -16 0 -22 -2 -12 -5z"/>
<path d="M5031 2280 c0 -8 4 -24 9 -35 5 -13 9 -14 9 -5 0 8 -4 24 -9 35 -5
13 -9 14 -9 5z"/>
<path d="M5150 1909 c0 -4 7 -22 15 -40 8 -19 14 -27 14 -19 0 14 -28 72 -29
59z"/>
<path d="M5180 1825 c0 -5 5 -17 10 -25 5 -8 10 -10 10 -5 0 6 -5 17 -10 25
-5 8 -10 11 -10 5z"/>
<path d="M3530 3191 c0 -5 5 -13 10 -16 6 -3 10 -2 10 4 0 5 -4 13 -10 16 -5
3 -10 2 -10 -4z"/>
<path d="M4675 3119 c-4 -6 -4 -13 0 -17 4 -4 10 -1 12 6 3 6 10 9 15 6 7 -4
8 -2 4 4 -9 15 -23 15 -31 1z"/>
<path d="M4620 2976 c0 -19 -3 -43 -6 -53 -4 -12 -3 -14 3 -6 6 9 13 3 22 -22
7 -20 17 -33 22 -30 5 4 2 21 -6 42 -8 19 -15 41 -15 47 0 20 19 -18 35 -70
13 -46 19 -54 56 -68 52 -21 64 -13 15 10 -29 14 -39 26 -47 58 -11 43 -59
126 -71 126 -5 0 -8 -15 -8 -34z"/>
<path d="M3656 3037 c3 -10 9 -15 12 -12 3 3 0 11 -7 18 -10 9 -11 8 -5 -6z"/>
<path d="M3140 2992 c0 -6 5 -14 10 -17 6 -4 7 -11 4 -17 -4 -7 -2 -8 5 -4 9
6 9 12 -1 24 -7 10 -14 19 -15 21 -2 2 -3 -1 -3 -7z"/>
<path d="M3346 3004 c-20 -19 -20 -25 -2 -18 8 3 17 12 20 20 7 18 1 18 -18
-2z"/>
<path d="M3401 2884 c0 -11 3 -14 6 -6 3 7 2 16 -1 19 -3 4 -6 -2 -5 -13z"/>
<path d="M3450 2924 c0 -6 7 -19 15 -30 8 -10 14 -14 14 -9 0 6 -6 19 -14 29
-8 11 -15 15 -15 10z"/>
<path d="M2881 2485 c0 -5 6 -21 14 -35 8 -14 14 -20 14 -15 0 6 -6 21 -14 35
-8 14 -14 21 -14 15z"/>
<path d="M4830 1676 c0 -2 7 -7 16 -10 8 -3 12 -2 9 4 -6 10 -25 14 -25 6z"/>
<path d="M5283 1399 c21 -35 23 -46 15 -76 -11 -41 0 -58 31 -48 27 8 26 20
-4 75 -14 25 -30 55 -36 68 -7 12 -16 22 -21 22 -5 0 2 -18 15 -41z m55 -101
c-7 -19 -38 -22 -38 -4 0 10 9 16 21 16 12 0 19 -5 17 -12z"/>
<path d="M4590 1886 c0 -11 30 -39 36 -34 2 3 -5 13 -16 23 -11 10 -20 15 -20
11z"/>
<path d="M2676 1323 c-6 -14 -5 -15 5 -6 7 7 10 15 7 18 -3 3 -9 -2 -12 -12z"/>
<path d="M2370 1190 c0 -5 5 -10 10 -10 6 0 10 5 10 10 0 6 -4 10 -10 10 -5 0
-10 -4 -10 -10z"/>
<path d="M3521 1615 c4 -3 19 -8 35 -11 16 -3 26 -2 23 1 -4 3 -19 8 -35 11
-16 3 -26 2 -23 -1z"/>
<path d="M3450 1480 c0 -5 5 -10 10 -10 6 0 10 5 10 10 0 6 -4 10 -10 10 -5 0
-10 -4 -10 -10z"/>
<path d="M3670 610 c0 -5 7 -7 15 -4 8 4 15 8 15 10 0 2 -7 4 -15 4 -8 0 -15
-4 -15 -10z"/>
<path d="M5417 950 c3 -11 7 -20 9 -20 2 0 4 9 4 20 0 11 -4 20 -9 20 -5 0 -7
-9 -4 -20z"/>
</g>
</svg>
